<?xml version="1.0" encoding="UTF-8" standalone="no"?><!DOCTYPE svg PUBLIC "-//W3C//DTD SVG 1.1//EN" "http://www.w3.org/Graphics/SVG/1.1/DTD/svg11.dtd"
><svg
	width="100%"
	height="100%"
	viewBox="0 0 980 600"
	version="1.1"
	xmlns="http://www.w3.org/2000/svg"
	xmlns:xlink="http://www.w3.org/1999/xlink"
	xml:space="preserve"
	xmlns:serif="http://www.serif.com/"
	style="fill-rule:evenodd;clip-rule:evenodd;stroke-linejoin:round;stroke-miterlimit:2;"
>
	<path
		d="M967,600l-48,0l-248,-96l0,-7l-231,-87l0,-50l5,-1l0,-2l-66,-21l-5,-245l196,-33l25,7l373,-65l12,0l0,170l-360,3l-5,4l-6,1l16,36l-5,1l0,4l9,0l1,56l-21,2l-3,2l-1,34l-35,5l0,3l392,73l8,2l10,-7l0,192l-13,19Zm-536.768,-368.411l59.768,5l0,91l-58.768,-13.589l-1,-82.411Zm-51.232,-3.589l48,3l1,83l-48,-11l-1,-75Z"
		style="fill:#fff;"
	/>
	<rect x="0" y="0" width="980" height="600" style="fill:none;" />
</svg>
