<?xml version="1.0" encoding="UTF-8" standalone="no"?><!DOCTYPE svg PUBLIC "-//W3C//DTD SVG 1.1//EN" "http://www.w3.org/Graphics/SVG/1.1/DTD/svg11.dtd"
><svg
	width="100%"
	height="100%"
	viewBox="0 0 561 248"
	xmlns="http://www.w3.org/2000/svg"
	xml:space="preserve"
	style="fill-rule:evenodd;clip-rule:evenodd; fill: #fff;"
>
	<path
		d="M3.415,158.717l44.957,0.091l-7.182,53.75l24.395,0l27.098,-209.124l-89.268,155.283Z"
	/>
	<path
		d="M92.682,3.434l-27.093,209.118l-24.401,0l7.182,-53.744l-44.957,-0.091l89.269,-155.283Z"
	/>
	<path
		d="M72.811,212.633l25.246,0.03l6.971,-53.829l36.586,0l-42.742,-155.422l-26.061,209.221Z"
	/>
	<path
		d="M105.026,158.835l-6.971,53.823l-25.24,-0.024l26.061,-209.221l42.742,155.422l-36.592,0Z"
	/>
	<path
		d="M272.6,41.618l-2.806,23.961l-29.356,0l3.235,-23.997l28.927,0.036Z"
	/>
	<path
		d="M268.715,72.104l-17.267,140.485l-29.338,0l17.858,-140.497l28.747,0.012Z"
	/>
	<path
		d="M227.409,90.793l-3.892,30.834l-28.222,0.006l2.481,-20.049c0.815,-6.971 -11.775,-6.971 -12.433,-0.018l-1.478,12.161c-1.576,13.718 37.437,26.084 35.192,44.975l-3.157,25.855c-4.309,31.831 -26.06,29.012 -39.121,29.236c-7.647,-0.417 -34.83,2.027 -30.919,-29.236l3.295,-25.782l28.952,0l-3.223,25.782c-1.026,7.647 11.793,7.201 12.644,0l2.565,-21.805c0.905,-7.194 -38.946,-19.567 -36.315,-41.101l3.875,-30.858c2.034,-17.539 10.58,-20.014 38.017,-20.014c22.258,0 34.069,1.123 31.739,20.014Z"
	/>
	<path
		d="M318.378,96.526l-5.987,0c-3.374,0.223 -6.747,2.306 -7.085,6.186l-9.784,75.997c-0.332,3.102 0.791,5.74 4.165,5.848l7.472,0l11.219,-88.031Zm14.443,115.915c-3.048,21.045 -5.927,31.8 -32.911,31.8l-43.346,0.054c0.447,-0.157 3.229,-22.234 3.229,-22.234l35.826,-0.03c8.564,-0.145 8.516,-9.156 8.516,-9.156c0,0 -14.37,-0.163 -22.651,-0.205c-21.824,-0.229 -17.979,-17.092 -17.78,-18.667c5.178,-42.199 13.157,-103.627 13.157,-103.627c2.179,-18.474 11.805,-18.474 22.512,-18.438l51.409,-0.036l-17.961,140.539Z"
	/>
	<path
		d="M400.088,96.491l-5.987,0c-3.374,0.223 -6.747,2.306 -7.079,6.186l-9.784,75.997c-0.338,3.102 0.785,5.74 4.159,5.848l7.471,0l11.22,-88.031Zm-36.99,116.011c-21.365,0 -17.684,-18.534 -17.684,-18.534l13.157,-103.627c2.179,-18.474 11.811,-18.474 22.512,-18.438l22.005,0l4.327,-34.401l28.825,0l-21.878,174.94l-51.264,0.06Z"
	/>
	<path
		d="M556.911,37.501l-22.035,174.94l-28.487,0l21.975,-174.94l28.547,0Z"
	/>
	<path
		d="M475.165,152.629l-5.987,0c-3.374,0.223 -6.748,2.305 -7.086,6.186l-2.583,19.898c-0.338,3.097 0.785,5.734 4.158,5.849l7.478,0l4.02,-31.933Zm36.507,-61.838l-15.148,122.022l-51.27,0.066c-21.359,0 -18.185,-18.878 -18.185,-18.878l6.186,-48.566c1.461,-11.359 3.483,-18.438 23.297,-18.438l22.005,0c0,0 3.138,-25.095 3.18,-25.512c0.761,-7.206 -11.606,-6.759 -12.427,-0.012l-2.667,20.128l-30.37,0.054l3.953,-30.864c2.245,-17.986 11.015,-18.885 22.971,-18.873l33.803,-0.012c16.863,0 15.403,13.374 14.672,18.885Z"
	/>
</svg>
